<svg width="202" height="138" viewBox="0 0 202 138" fill="none" xmlns="http://www.w3.org/2000/svg">
<path d="M202.004 113C202.004 116.385 201.385 119.576 200.148 122.57C198.911 125.565 197.186 128.169 194.973 130.383C192.759 132.596 190.155 134.354 187.16 135.656C184.23 136.958 181.04 137.609 177.59 137.609C175.311 137.609 173.065 137.251 170.852 136.535C168.638 135.819 166.587 134.81 164.699 133.508C162.876 132.141 161.281 130.513 159.914 128.625C158.547 126.737 157.57 124.654 156.984 122.375L159.23 121.789C160.923 123.872 162.876 125.598 165.09 126.965C167.368 128.332 169.94 129.016 172.805 129.016C175.214 129.016 177.427 128.495 179.445 127.453C181.529 126.411 183.286 125.044 184.719 123.352C186.216 121.659 187.355 119.706 188.137 117.492C188.983 115.214 189.406 112.902 189.406 110.559C189.406 107.759 189.016 105.448 188.234 103.625C187.453 101.737 186.411 100.174 185.109 98.9375C183.872 97.6354 182.473 96.5286 180.91 95.6172C179.348 94.6406 177.753 93.6641 176.125 92.6875C174.562 91.7109 173.033 90.6042 171.535 89.3672C170.103 88.1302 168.866 86.5352 167.824 84.582C167.759 88.4232 167.108 92.4596 165.871 96.6914C164.634 100.923 162.941 105.025 160.793 108.996C158.71 112.967 156.301 116.678 153.566 120.129C150.832 123.579 147.935 126.477 144.875 128.82L144.094 127.453C146.177 125.24 148 122.473 149.562 119.152C151.125 115.832 152.395 112.349 153.371 108.703C154.413 104.992 155.161 101.281 155.617 97.5703C156.138 93.8594 156.398 90.474 156.398 87.4141C156.398 85.7865 156.236 84.1914 155.91 82.6289C155.585 81.0664 155.422 79.5365 155.422 78.0391C155.422 76.2161 155.943 74.8164 156.984 73.8398C158.091 72.8633 159.491 72.375 161.184 72.375C162.486 72.375 163.527 72.668 164.309 73.2539C165.09 73.8398 165.806 74.6211 166.457 75.5977C167.108 76.5091 167.759 77.5833 168.41 78.8203C169.061 79.9922 169.875 81.2292 170.852 82.5312C171.893 83.7682 173.163 85.0052 174.66 86.2422C176.223 87.4141 178.208 88.4557 180.617 89.3672C183.417 90.4089 186.086 91.6133 188.625 92.9805C191.229 94.2826 193.508 95.8451 195.461 97.668C197.479 99.4909 199.074 101.672 200.246 104.211C201.418 106.685 202.004 109.615 202.004 113Z" fill="#090909"/>
<path d="M152.148 13.3789C152.148 17.8711 151.497 22.3307 150.195 26.7578C148.958 31.1198 147.233 35.3841 145.02 39.5508C142.806 43.6523 140.169 47.5911 137.109 51.3672C134.115 55.0781 130.859 58.5286 127.344 61.7188C123.828 64.8438 120.15 67.7083 116.309 70.3125C112.467 72.8516 108.626 74.9674 104.785 76.6602L104.102 75.1953C108.919 72.9167 113.509 69.694 117.871 65.5273C122.298 61.2956 126.172 56.5755 129.492 51.3672C132.878 46.0938 135.547 40.5599 137.5 34.7656C139.518 28.9714 140.527 23.3073 140.527 17.7734C140.527 16.6667 140.43 15.5273 140.234 14.3555C140.104 13.1836 139.779 12.1094 139.258 11.1328C138.802 10.1562 138.151 9.375 137.305 8.78906C136.458 8.13802 135.352 7.8125 133.984 7.8125C130.143 7.8125 126.595 9.11458 123.34 11.7188C120.085 14.3229 117.122 17.806 114.453 22.168C111.849 26.4648 109.538 31.4128 107.52 37.0117C105.501 42.6107 103.809 48.3724 102.441 54.2969C101.074 60.2214 100.033 66.0807 99.3164 71.875C98.6654 77.6693 98.3398 82.9753 98.3398 87.793C98.3398 90.332 98.4701 93.1641 98.7305 96.2891C99.056 99.349 99.5768 102.441 100.293 105.566C101.074 108.691 102.051 111.751 103.223 114.746C104.46 117.676 105.99 120.28 107.812 122.559C109.701 124.837 111.914 126.693 114.453 128.125C116.992 129.492 119.954 130.176 123.34 130.176C125.488 130.176 127.311 129.753 128.809 128.906C130.371 128.06 131.608 126.921 132.52 125.488C133.496 124.056 134.212 122.428 134.668 120.605C135.124 118.783 135.352 116.927 135.352 115.039C135.352 112.109 134.928 109.017 134.082 105.762C133.301 102.507 132.064 99.5443 130.371 96.875C128.743 94.2057 126.66 91.9922 124.121 90.2344C121.582 88.4766 118.587 87.5977 115.137 87.5977C114.16 87.5977 113.151 87.6953 112.109 87.8906C111.133 88.0208 110.156 88.2487 109.18 88.5742L108.594 87.5977C111.003 85.7747 113.607 84.2448 116.406 83.0078C119.271 81.7057 122.266 81.0547 125.391 81.0547C128.711 81.0547 131.673 81.7708 134.277 83.2031C136.882 84.6354 139.062 86.4909 140.82 88.7695C142.643 91.0482 144.01 93.6849 144.922 96.6797C145.898 99.6094 146.387 102.572 146.387 105.566C146.387 110.059 145.605 114.258 144.043 118.164C142.546 122.07 140.43 125.488 137.695 128.418C134.961 131.283 131.673 133.529 127.832 135.156C124.056 136.784 119.889 137.598 115.332 137.598C111.426 137.598 107.975 136.882 104.98 135.449C102.051 134.082 99.4792 132.227 97.2656 129.883C95.0521 127.539 93.1966 124.837 91.6992 121.777C90.2018 118.652 88.9974 115.397 88.0859 112.012C87.1745 108.561 86.5234 105.111 86.1328 101.66C85.7422 98.2096 85.5469 94.9219 85.5469 91.7969C85.5469 86.0677 86.0352 79.8177 87.0117 73.0469C88.0534 66.276 89.5508 59.5052 91.5039 52.7344C93.5221 45.8984 96.0286 39.3229 99.0234 33.0078C102.083 26.6276 105.599 20.9961 109.57 16.1133C113.607 11.2305 118.132 7.32422 123.145 4.39453C128.158 1.46484 133.691 0 139.746 0C143.978 0 147.103 1.23698 149.121 3.71094C151.139 6.11979 152.148 9.34245 152.148 13.3789Z" fill="#090909"/>
<path d="M91.4062 120.41C90.3646 122.559 89.0625 124.512 87.5 126.27C85.9375 127.962 84.1797 129.427 82.2266 130.664C80.2734 131.836 78.1901 132.747 75.9766 133.398C73.763 134.049 71.4518 134.375 69.043 134.375C63.9648 134.375 59.6354 133.138 56.0547 130.664C52.5391 128.19 49.5768 124.967 47.168 120.996C45.4102 122.949 43.457 124.902 41.3086 126.855C39.2253 128.743 36.9792 130.436 34.5703 131.934C32.2266 133.366 29.7852 134.538 27.2461 135.449C24.707 136.361 22.168 136.816 19.6289 136.816C16.569 136.816 13.8346 136.198 11.4258 134.961C9.01693 133.724 6.96615 132.096 5.27344 130.078C3.58073 127.995 2.27865 125.651 1.36719 123.047C0.455729 120.378 0 117.611 0 114.746C0 110.449 0.94401 106.12 2.83203 101.758C4.78516 97.3958 7.32422 93.457 10.4492 89.9414C13.6393 86.3607 17.2852 83.4635 21.3867 81.25C25.4883 79.0365 29.7526 77.9297 34.1797 77.9297C35.4818 77.9297 36.6211 78.0599 37.5977 78.3203V74.2188C37.5977 72.3307 37.6628 69.8242 37.793 66.6992C37.9232 63.5742 38.1836 60.1237 38.5742 56.3477C38.9648 52.5065 39.4531 48.5026 40.0391 44.3359C40.6901 40.1042 41.5039 35.9375 42.4805 31.8359C43.5221 27.6693 44.7266 23.7305 46.0938 20.0195C47.4609 16.2435 49.056 12.9557 50.8789 10.1562C52.7018 7.29167 54.7852 5.01302 57.1289 3.32031C59.4727 1.6276 62.1094 0.78125 65.0391 0.78125C68.4896 0.78125 71.2891 1.79036 73.4375 3.80859C75.5859 5.82682 77.2786 8.33333 78.5156 11.3281C79.7526 14.2578 80.5664 17.3828 80.957 20.7031C81.4128 24.0234 81.6406 26.9857 81.6406 29.5898C81.6406 32.9753 81.3151 36.9141 80.6641 41.4062C80.013 45.8333 79.1016 50.5534 77.9297 55.5664C76.7578 60.5143 75.3581 65.5924 73.7305 70.8008C72.1029 76.0091 70.3451 81.0221 68.457 85.8398C66.569 90.6576 64.5182 95.1497 62.3047 99.3164C60.1562 103.418 57.9753 106.901 55.7617 109.766C56.6081 112.305 57.6172 114.648 58.7891 116.797C60.026 118.945 61.4583 120.801 63.0859 122.363C64.7135 123.926 66.569 125.163 68.6523 126.074C70.7357 126.921 73.112 127.344 75.7812 127.344C81.901 127.344 86.9141 124.902 90.8203 120.02L91.4062 120.41ZM51.3672 66.0156C51.3672 68.3594 51.3672 71.0938 51.3672 74.2188C51.3672 77.2786 51.4323 80.5339 51.5625 83.9844C51.7578 87.4349 52.0508 90.9831 52.4414 94.6289C52.8971 98.2096 53.5482 101.693 54.3945 105.078C57.1289 99.8047 59.6354 94.043 61.9141 87.793C64.1927 81.4779 66.1458 75.0326 67.7734 68.457C69.4661 61.8164 70.7682 55.2083 71.6797 48.6328C72.5911 42.0573 73.0469 35.8398 73.0469 29.9805C73.0469 28.7435 72.9818 26.9531 72.8516 24.6094C72.7214 22.2656 72.3633 19.9544 71.7773 17.6758C71.1914 15.332 70.3125 13.3138 69.1406 11.6211C67.9688 9.86328 66.3737 8.98438 64.3555 8.98438C62.793 8.98438 61.3932 9.73307 60.1562 11.2305C58.9193 12.6628 57.8451 14.6159 56.9336 17.0898C56.0221 19.4987 55.2409 22.2656 54.5898 25.3906C54.0039 28.5156 53.4831 31.7708 53.0273 35.1562C52.6367 38.5417 52.3112 41.8945 52.0508 45.2148C51.8555 48.5352 51.6927 51.6276 51.5625 54.4922C51.4974 57.2917 51.4323 59.7331 51.3672 61.8164C51.3672 63.8346 51.3672 65.2344 51.3672 66.0156ZM26.7578 126.172C30.4688 126.172 33.8867 125.456 37.0117 124.023C40.2018 122.591 43.099 120.703 45.7031 118.359C44.4661 115.951 43.3919 113.379 42.4805 110.645C41.6341 107.845 40.8854 105.046 40.2344 102.246C39.6484 99.3815 39.1602 96.5169 38.7695 93.6523C38.444 90.7878 38.1836 88.0208 37.9883 85.3516C37.207 84.5052 36.2305 83.8216 35.0586 83.3008C33.8867 82.7148 32.4544 82.4219 30.7617 82.4219C27.7018 82.4219 24.9674 83.2682 22.5586 84.9609C20.2148 86.5885 18.2292 88.6719 16.6016 91.2109C14.974 93.6849 13.737 96.4193 12.8906 99.4141C12.0443 102.344 11.6211 105.143 11.6211 107.812C11.6211 110.286 11.8815 112.663 12.4023 114.941C12.9883 117.155 13.8997 119.108 15.1367 120.801C16.3737 122.428 17.9362 123.73 19.8242 124.707C21.7773 125.684 24.0885 126.172 26.7578 126.172Z" fill="#090909"/>
</svg>
