<svg width="205" height="141" viewBox="0 0 205 141" fill="none" xmlns="http://www.w3.org/2000/svg">
<path d="M163.09 73.5C164.464 73.5 165.622 73.8092 166.515 74.4785C167.346 75.1017 168.096 75.9235 168.77 76.9316H168.771C169.436 77.8628 170.096 78.9542 170.753 80.2021H170.754C171.389 81.3459 172.186 82.5589 173.146 83.8408C174.162 85.0456 175.404 86.2564 176.875 87.4727C178.388 88.606 180.325 89.6256 182.697 90.5234H182.698C185.518 91.5728 188.209 92.7866 190.769 94.165C193.403 95.4838 195.715 97.0693 197.701 98.9219H197.702C199.771 100.79 201.405 103.025 202.604 105.622L202.824 106.106C203.887 108.554 204.41 111.398 204.41 114.625C204.41 118.073 203.78 121.328 202.517 124.386C201.255 127.439 199.494 130.1 197.232 132.361C194.973 134.621 192.315 136.414 189.266 137.74L189.265 137.739C186.267 139.071 183.009 139.734 179.496 139.734C177.164 139.734 174.866 139.368 172.604 138.636C170.345 137.905 168.25 136.874 166.321 135.544L166.313 135.539L166.306 135.533C164.442 134.135 162.811 132.471 161.415 130.543C160.011 128.604 159.008 126.463 158.406 124.125L158.282 123.642L158.765 123.517L161.011 122.931L161.322 122.849L161.524 123.099C163.183 125.14 165.094 126.827 167.259 128.164H167.258C169.452 129.479 171.932 130.141 174.711 130.141C177.045 130.141 179.179 129.637 181.122 128.634L181.128 128.631L181.504 128.438C183.365 127.451 184.943 126.189 186.243 124.653L186.25 124.646L186.625 124.977L186.251 124.646C187.704 123.003 188.811 121.106 189.571 118.951L189.574 118.943L189.725 118.525C190.451 116.436 190.812 114.323 190.812 112.184C190.812 109.426 190.427 107.188 189.681 105.447L189.679 105.441C188.921 103.609 187.916 102.107 186.671 100.925L186.653 100.907C185.449 99.6396 184.086 98.5617 182.564 97.6738L182.558 97.6699L182.552 97.666C180.992 96.6912 179.399 95.7162 177.774 94.7412L177.767 94.7363C176.185 93.7475 174.636 92.6281 173.123 91.3779L173.114 91.3711L173.441 90.9922L173.114 91.3701C172.014 90.4199 171.031 89.2704 170.162 87.9268C169.958 91.2991 169.323 94.8099 168.257 98.457C167.01 102.723 165.303 106.858 163.139 110.859C161.042 114.856 158.617 118.591 155.864 122.064C153.108 125.543 150.182 128.47 147.085 130.842L146.631 131.19L146.347 130.693L145.382 129.005L145.636 128.735C147.676 126.567 149.472 123.847 151.017 120.564C152.566 117.272 153.825 113.817 154.794 110.199L154.796 110.193L155.171 108.811C156.013 105.584 156.631 102.359 157.027 99.1348L157.028 99.126L157.211 97.7568C157.608 94.5979 157.805 91.6923 157.805 89.0391C157.805 87.445 157.646 85.8838 157.327 84.3555C156.995 82.7617 156.828 81.1978 156.828 79.6641C156.828 77.7435 157.38 76.1952 158.549 75.0996L158.554 75.0947L158.56 75.0898C159.771 74.0209 161.294 73.5 163.09 73.5Z" fill="#090909" stroke="#7A89A7"/>
<path d="M141.652 1.125C145.982 1.125 149.273 2.39397 151.415 5.01953H151.414C153.524 7.54094 154.555 10.8865 154.555 15.0039C154.555 19.5434 153.896 24.0486 152.582 28.5186L152.583 28.5195C151.336 32.9168 149.597 37.2136 147.367 41.4102L147.366 41.4131C145.277 45.285 142.813 49.0117 139.977 52.5928L139.404 53.3066C136.393 57.0374 133.121 60.5065 129.586 63.7139L129.582 63.7178C126.05 66.857 122.354 69.735 118.495 72.3516L118.49 72.3545C114.628 74.9076 110.762 77.0381 106.893 78.7432L106.445 78.9404L106.238 78.4971L105.555 77.0322L105.345 76.5811L105.794 76.3682C110.557 74.1153 115.103 70.9254 119.432 66.791L120.25 65.9971C124.308 61.9992 127.884 57.5749 130.977 52.7236L130.978 52.7217L131.6 51.7363C134.67 46.7939 137.114 41.6253 138.933 36.2305L138.934 36.2266L139.298 35.1504C141.057 29.7787 141.934 24.5286 141.934 19.3984C141.934 18.3211 141.839 17.2092 141.647 16.0625L141.646 16.0488L141.644 16.0361C141.52 14.9231 141.212 13.9102 140.723 12.9932L140.711 12.9697C140.291 12.0697 139.697 11.3583 138.927 10.8252L138.916 10.8184L138.906 10.8105C138.169 10.2436 137.179 9.9375 135.891 9.9375C132.173 9.9375 128.733 11.1947 125.559 13.7344C122.358 16.2951 119.432 19.7305 116.786 24.0537C114.202 28.3172 111.905 33.234 109.896 38.8066C107.885 44.3864 106.198 50.1288 104.835 56.0342C103.472 61.9403 102.433 67.7804 101.719 73.5547L101.72 73.5557C101.07 79.3351 100.746 84.6223 100.746 89.418C100.746 91.9374 100.875 94.7515 101.134 97.8613L101.265 99.0029C101.59 101.666 102.063 104.356 102.685 107.07L102.984 108.231C103.705 110.929 104.573 113.578 105.59 116.177L105.821 116.715C106.998 119.384 108.426 121.766 110.104 123.864L110.454 124.278C112.223 126.32 114.27 127.996 116.597 129.31L117.062 129.55C119.412 130.712 122.136 131.301 125.246 131.301C127.329 131.301 129.063 130.89 130.469 130.096L130.477 130.092L130.753 129.937C132.113 129.147 133.194 128.117 134.004 126.845L134.008 126.838L134.013 126.832C134.953 125.453 135.646 123.88 136.089 122.109C136.535 120.326 136.758 118.511 136.758 116.664C136.758 113.783 136.341 110.733 135.504 107.513L135.502 107.504L135.988 107.387L135.502 107.503C134.733 104.298 133.517 101.388 131.855 98.7676L131.851 98.7607C130.259 96.1505 128.224 93.988 125.743 92.2705C123.297 90.5773 120.404 89.7227 117.043 89.7227C116.1 89.7227 115.121 89.8167 114.107 90.0068L114.095 90.0098L114.082 90.0117C113.138 90.1376 112.192 90.3578 111.244 90.6738L110.863 90.8008L110.657 90.4561L110.071 89.4795L109.84 89.0947L110.198 88.8242C112.637 86.9787 115.273 85.4297 118.105 84.1777L118.656 83.9355C121.418 82.7653 124.3 82.1797 127.297 82.1797C130.691 82.1797 133.738 82.9122 136.425 84.3896C139.084 85.8524 141.316 87.7506 143.116 90.082H143.117C144.98 92.4105 146.374 95.1007 147.303 98.1465L147.482 98.7061C148.355 101.503 148.793 104.332 148.793 107.191C148.793 111.74 148.001 116 146.415 119.967L146.416 119.968C144.897 123.931 142.747 127.405 139.967 130.384L139.963 130.389C137.18 133.304 133.835 135.587 129.936 137.239L129.937 137.24C126.092 138.898 121.856 139.723 117.238 139.723C113.272 139.723 109.747 138.996 106.675 137.527L106.119 137.26C103.362 135.895 100.924 134.092 98.8086 131.852C96.5585 129.469 94.6745 126.725 93.1562 123.622L93.1543 123.618C91.6436 120.465 90.4291 117.181 89.5098 113.767L89.5088 113.765C88.5913 110.291 87.9354 106.817 87.542 103.342C87.1495 99.8746 86.9531 96.5676 86.9531 93.4219C86.9531 87.6648 87.4435 81.3906 88.4229 74.6006L88.4238 74.5957L88.625 73.3223C89.6583 66.9543 91.0932 60.5871 92.9297 54.2207L92.9307 54.2178L93.3164 52.9346C95.2727 46.5337 97.6594 40.3616 100.478 34.4189L100.479 34.417L101.061 33.2236C103.997 27.3002 107.34 22.0325 111.089 17.4229L111.091 17.4199L111.86 16.5078C115.735 12.0063 120.048 8.36462 124.799 5.58789C129.892 2.6116 135.513 1.125 141.652 1.125Z" fill="#090909" stroke="#7A89A7"/>
<path d="M66.9453 1.90625C70.4999 1.90625 73.4298 2.94934 75.6865 5.06934C77.8907 7.14 79.6206 9.70665 80.8818 12.7588H80.8828C82.1378 15.7311 82.9621 18.8988 83.3584 22.2598L83.5195 23.4951C83.8704 26.3379 84.0469 28.9116 84.0469 31.2148C84.0469 34.6306 83.7188 38.5942 83.0654 43.1025V43.1035C82.4121 47.5463 81.4978 52.281 80.3232 57.3057L80.3223 57.3066C79.1475 62.2667 77.7451 67.3565 76.1143 72.5752C74.4833 77.7941 72.7216 82.8183 70.8291 87.6475C68.9352 92.4802 66.8761 96.9886 64.6533 101.173L64.6543 101.174C62.5492 105.193 60.4059 108.628 58.2275 111.479C59.0467 113.894 60.0128 116.125 61.1289 118.173L61.5938 118.95C62.6986 120.733 63.9474 122.292 65.3389 123.628C66.9219 125.148 68.7258 126.351 70.7529 127.238C72.765 128.055 75.0735 128.469 77.6875 128.469C83.6516 128.469 88.5222 126.099 92.3359 121.332L92.6221 120.975L93.0039 121.229L93.5898 121.619L93.9521 121.861L93.7627 122.253C92.7013 124.442 91.3737 126.434 89.7803 128.227L89.7734 128.233C88.1813 129.958 86.3902 131.452 84.4004 132.712L84.3896 132.718C82.3997 133.912 80.2771 134.84 78.0234 135.503C75.7622 136.168 73.4036 136.5 70.9492 136.5C65.787 136.5 61.3543 135.241 57.6768 132.7L57.6729 132.698C54.2655 130.3 51.3754 127.213 48.998 123.445C47.5708 125.002 46.0229 126.56 44.3516 128.114L43.5508 128.851C41.445 130.759 39.1744 132.47 36.7402 133.983L36.7373 133.985C34.3651 135.435 31.8929 136.622 29.3213 137.545C26.7314 138.475 24.1353 138.941 21.5352 138.941C18.4062 138.941 15.5918 138.308 13.1035 137.03C10.6373 135.764 8.53353 134.095 6.79688 132.024L6.79199 132.019C5.16995 130.022 3.89922 127.792 2.98047 125.332L2.80176 124.837L2.7998 124.833C1.87043 122.111 1.40625 119.29 1.40625 116.371C1.40625 111.999 2.36714 107.602 4.2793 103.185L4.28223 103.179L4.65918 102.357C6.57894 98.275 9.01949 94.5666 11.9814 91.2344L11.9824 91.2334L12.5928 90.5625C15.673 87.2468 19.1611 84.5364 23.0557 82.4346C27.2261 80.1839 31.5716 79.0547 36.0859 79.0547C37.1559 79.0547 38.1295 79.1419 39.0039 79.3174V75.8438C39.0039 73.9458 39.0689 71.4316 39.1992 68.3037C39.3299 65.1666 39.5919 61.7051 39.9834 57.9209C40.3747 54.0733 40.8635 50.0635 41.4502 45.8916L41.4512 45.8848L41.7041 44.2959C42.3113 40.5959 43.0431 36.9452 43.9004 33.3447L43.9014 33.3398L44.3018 31.7822C45.2526 28.1718 46.329 24.7348 47.5312 21.4717C48.9087 17.6678 50.5192 14.3453 52.3662 11.5088C54.2166 8.60198 56.3402 6.27482 58.7422 4.54004C61.1724 2.78492 63.912 1.90625 66.9453 1.90625ZM32.668 84.5469C29.7067 84.5469 27.0732 85.364 24.752 86.9951L24.75 86.9971C22.4635 88.5849 20.5228 90.6188 18.9287 93.1055L18.9258 93.1104C17.3278 95.5393 16.1115 98.2269 15.2783 101.175L15.2773 101.178C14.4422 104.069 14.0273 106.821 14.0273 109.438C14.0273 111.87 14.2825 114.203 14.792 116.438L14.9023 116.84C15.474 118.83 16.321 120.589 17.4404 122.123H17.4414C18.6303 123.687 20.1321 124.941 21.9541 125.885L22.3086 126.055C24.1042 126.878 26.2183 127.297 28.6641 127.297C32.3089 127.297 35.6554 126.594 38.71 125.194L38.7129 125.192L39.2988 124.923C42.0972 123.601 44.6591 121.914 46.9893 119.863C45.8144 117.531 44.7874 115.053 43.9121 112.428L43.9082 112.414C43.0588 109.604 42.3069 106.795 41.6533 103.984L41.6504 103.972C41.0623 101.096 40.5728 98.2204 40.1807 95.3447L40.1787 95.334C39.8599 92.5284 39.6035 89.8153 39.4092 87.1953C38.6985 86.46 37.8202 85.8533 36.7617 85.3828L36.751 85.3779L36.7412 85.373C35.656 84.8304 34.305 84.5469 32.668 84.5469ZM66.2617 11.1094C64.8839 11.1094 63.6154 11.761 62.4482 13.1738L62.4414 13.1826L62.0625 12.8555L62.4404 13.1826C61.255 14.5554 60.2068 16.4498 59.3086 18.8877L59.3076 18.8916C58.4073 21.271 57.6323 24.0121 56.9854 27.1172C56.4024 30.2272 55.8836 33.4674 55.4297 36.8379L55.4307 36.8389C55.0412 40.2146 54.7149 43.5576 54.4551 46.8682L54.4561 46.8691C54.2611 50.183 54.0978 53.2692 53.9678 56.1279L53.9688 56.1289C53.9036 58.9293 53.8386 61.372 53.7734 63.457V75.8438C53.7734 78.8966 53.8387 82.1458 53.9688 85.5908C54.1634 89.0262 54.4549 92.5594 54.8438 96.1904L55.0225 97.5215C55.3968 100.16 55.8795 102.743 56.4697 105.272C58.9555 100.349 61.2494 95.0084 63.3496 89.248L63.7725 88.0654C65.8651 82.1453 67.6723 76.1108 69.1943 69.9619L69.1953 69.959L69.5068 68.7168C71.0438 62.5117 72.2388 56.336 73.0908 50.1895C73.9995 43.6337 74.4531 37.4391 74.4531 31.6055C74.4531 30.3826 74.3889 28.6028 74.2588 26.2617C74.1304 23.951 73.7769 21.6725 73.1992 19.4258L73.1982 19.4219C72.6244 17.1267 71.7679 15.1656 70.6357 13.5303L70.6309 13.5234C69.5465 11.8969 68.1036 11.1094 66.2617 11.1094Z" fill="#090909" stroke="#7A89A7"/>
</svg>
